<svg width="33" height="23" viewBox="0 0 33 23" fill="none" xmlns="http://www.w3.org/2000/svg">
<path id="to-dark-icon" d="M21.0015 2.51653L19.4019 3.71711C19.5154 3.86829 19.6497 4.00262 19.8009 4.1161L21.0015 2.51653ZM19.9985 1.51362L18.399 2.71419C18.5124 2.86538 18.6468 2.99971 18.798 3.11319L19.9985 1.51362ZM10.4849 -8L12.2859 -7.13023C12.6559 -7.89633 12.5007 -8.81264 11.8991 -9.41421C11.2976 -10.0158 10.3813 -10.171 9.61516 -9.80097L10.4849 -8ZM30.5151 12.0301L32.316 12.8999C32.686 12.1338 32.5309 11.2175 31.9293 10.6159C31.3277 10.0144 30.4114 9.85919 29.6453 10.2292L30.5151 12.0301ZM24 -8.48493C20.134 -8.48493 17 -5.35092 17 -1.48493H21C21 -3.14178 22.3431 -4.48493 24 -4.48493V-8.48493ZM31 -1.48493C31 -5.35092 27.866 -8.48493 24 -8.48493V-4.48493C25.6569 -4.48493 27 -3.14178 27 -1.48493H31ZM24 5.51507C27.866 5.51507 31 2.38106 31 -1.48493H27C27 0.171926 25.6569 1.51507 24 1.51507V5.51507ZM19.8009 4.1161C20.9706 4.99408 22.4274 5.51507 24 5.51507V1.51507C23.3227 1.51507 22.7031 1.29303 22.202 0.916961L19.8009 4.1161ZM22.601 1.31595C22.2024 0.784907 21.7302 0.312634 21.1991 -0.0859504L18.798 3.11319C19.0266 3.28482 19.2302 3.48843 19.4019 3.71711L22.601 1.31595ZM17 -1.48493C17 0.0877037 17.521 1.54442 18.399 2.71419L21.5981 0.313042C21.222 -0.188011 21 -0.807654 21 -1.48493H17ZM11 -1.48493C11 -3.51195 11.4625 -5.4253 12.2859 -7.13023L8.68396 -8.86977C7.60424 -6.63409 7 -4.12725 7 -1.48493H11ZM24 11.5151C16.8203 11.5151 11 5.69477 11 -1.48493H7C7 7.90391 14.6112 15.5151 24 15.5151V11.5151ZM29.6453 10.2292C27.9404 11.0526 26.027 11.5151 24 11.5151V15.5151C26.6423 15.5151 29.1492 14.9108 31.3848 13.8311L29.6453 10.2292ZM28.7141 11.1604C26.6102 15.5167 22.1533 18.5151 17 18.5151V22.5151C23.7459 22.5151 29.5701 18.5857 32.316 12.8999L28.7141 11.1604ZM17 18.5151C9.8203 18.5151 4 12.6948 4 5.51507H0C0 14.9039 7.61116 22.5151 17 22.5151V18.5151ZM4 5.51507C4 0.361732 6.99838 -4.09517 11.3547 -6.19903L9.61516 -9.80097C3.92934 -7.05504 0 -1.23079 0 5.51507H4Z" fill="black"/>
</svg>
