<svg width="125" height="42" viewBox="0 0 125 42" fill="none" xmlns="http://www.w3.org/2000/svg">
<g id="logo-desktop">
<path id="Combined Shape" fill-rule="evenodd" clip-rule="evenodd" d="M0 20.5281C0 31.8654 9.19074 41.0562 20.5281 41.0562C25.1146 41.0562 29.3499 39.552 32.7674 37.01L35.9349 40.1775L40.1775 35.9349L37.01 32.7674C39.552 29.3499 41.0562 25.1146 41.0562 20.5281C41.0562 9.19074 31.8654 0 20.5281 0C9.19074 0 0 9.19074 0 20.5281ZM20.5281 35.0562C23.4546 35.0562 26.1791 34.1909 28.4595 32.7021L24.7101 28.9528L28.9528 24.7101L32.7021 28.4595C34.1909 26.1791 35.0562 23.4546 35.0562 20.5281C35.0562 12.5044 28.5517 6 20.5281 6C12.5044 6 6 12.5044 6 20.5281C6 28.5517 12.5044 35.0562 20.5281 35.0562ZM69.573 34.3258H49.8202V23.5281H65.191V17.5281H49.8202V6.73034H69.573V0.730337H43.8202V40.3258H69.573V34.3258ZM83.5618 0.730337H73.1461V40.3258H83.5618C94.4958 40.3258 103.36 31.4621 103.36 20.5281C103.36 9.59409 94.4958 0.730337 83.5618 0.730337ZM79.1461 6.73034H83.5618C91.1821 6.73034 97.3596 12.9078 97.3596 20.5281C97.3596 28.1484 91.1821 34.3258 83.5618 34.3258H79.1461V6.73034Z" fill="black"/>
<path id="Rectangle" fill-rule="evenodd" clip-rule="evenodd" d="M125 16.4157V0.730347H109.315V16.4157H125ZM121 12.4157H113.315V4.73035H121V12.4157Z" fill="url(#paint0_linear_0_1010)"/>
</g>
<defs>
<linearGradient id="paint0_linear_0_1010" x1="101.574" y1="8.47069" x2="117.055" y2="23.9514" gradientUnits="userSpaceOnUse">
<stop stop-color="#0790D7"/>
<stop offset="1" stop-color="#08F7F7"/>
</linearGradient>
</defs>
</svg>
