<svg width="1050" height="490" fill="none" xmlns="http://www.w3.org/2000/svg"><g fill="#E6E6E6"><circle cx="265" cy="5" r="5"/><circle cx="284.998" cy="5" r="5"/><circle cx="304.995" cy="5" r="5"/><circle cx="364.999" cy="5" r="5"/><circle cx="384.996" cy="5" r="5"/><circle cx="404.994" cy="5" r="5"/><circle cx="425.002" cy="5" r="5"/><circle cx="224.995" cy="25.008" r="5"/><circle cx="245.003" cy="25.008" r="5"/><circle cx="265" cy="25.008" r="5"/><circle cx="304.995" cy="25.008" r="5"/><circle cx="324.993" cy="25.008" r="5"/><circle cx="345.001" cy="25.008" r="5"/><circle cx="364.999" cy="25.008" r="5"/><circle cx="384.996" cy="25.008" r="5"/><circle cx="404.994" cy="25.008" r="5"/><circle cx="425.002" cy="25.008" r="5"/><circle cx="144.994" cy="45.006" r="5"/><circle cx="245.003" cy="45.006" r="5"/><circle cx="284.998" cy="45.006" r="5"/><circle cx="304.995" cy="45.006" r="5"/><circle cx="324.993" cy="45.006" r="5"/><circle cx="345.001" cy="45.006" r="5"/><circle cx="364.999" cy="45.006" r="5"/><circle cx="384.996" cy="45.006" r="5"/><circle cx="404.994" cy="45.006" r="5"/><circle cx="425.002" cy="45.006" r="5"/><circle cx="804.998" cy="45.006" r="5"/><circle cx="144.994" cy="65.003" r="5"/><circle cx="184.999" cy="65.003" r="5"/><circle cx="204.997" cy="65.003" r="5"/><circle cx="245.003" cy="65.003" r="5"/><circle cx="265" cy="65.003" r="5"/><circle cx="345.001" cy="65.003" r="5"/><circle cx="364.999" cy="65.003" r="5"/><circle cx="384.996" cy="65.003" r="5"/><circle cx="404.994" cy="65.003" r="5"/><circle cx="425.002" cy="65.003" r="5"/><circle cx="744.995" cy="65.003" r="5"/><circle cx="764.992" cy="65.003" r="5"/><circle cx="785" cy="65.003" r="5"/><circle cx="804.998" cy="65.003" r="5"/><circle cx="824.996" cy="65.003" r="5"/><circle cx="864.991" cy="65.003" r="5"/><circle cx="904.997" cy="65.003" r="5"/><circle cx="24.998" cy="85.001" r="5"/><circle cx="44.995" cy="85.001" r="5"/><circle cx="65.003" cy="85.001" r="5"/><circle cx="104.998" cy="85.001" r="5"/><circle cx="124.996" cy="85.001" r="5"/><circle cx="165.002" cy="85.001" r="5"/><circle cx="184.999" cy="85.001" r="5"/><circle cx="204.997" cy="85.001" r="5"/><circle cx="245.003" cy="85.001" r="5"/><circle cx="284.998" cy="85.001" r="5"/><circle cx="345.001" cy="85.001" r="5"/><circle cx="364.999" cy="85.001" r="5"/><circle cx="384.996" cy="85.001" r="5"/><circle cx="404.994" cy="85.001" r="5"/><circle cx="564.995" cy="85.001" r="5"/><circle cx="584.993" cy="85.001" r="5"/><circle cx="705" cy="85.001" r="5"/><circle cx="724.997" cy="85.001" r="5"/><circle cx="744.995" cy="85.001" r="5"/><circle cx="764.992" cy="85.001" r="5"/><circle cx="785" cy="85.001" r="5"/><circle cx="804.998" cy="85.001" r="5"/><circle cx="824.996" cy="85.001" r="5"/><circle cx="844.993" cy="85.001" r="5"/><circle cx="864.991" cy="85.001" r="5"/><circle cx="884.999" cy="85.001" r="5"/><circle cx="904.997" cy="85.001" r="5"/><circle cx="924.994" cy="85.001" r="5"/><circle cx="944.992" cy="85.001" r="5"/><circle cx="965" cy="85.001" r="5"/><circle cx="1005" cy="85.001" r="5"/><circle cx="5" cy="104.998" r="5"/><circle cx="24.998" cy="104.998" r="5"/><circle cx="44.995" cy="104.998" r="5"/><circle cx="65.003" cy="104.998" r="5"/><circle cx="85.001" cy="104.998" r="5"/><circle cx="104.998" cy="104.998" r="5"/><circle cx="124.996" cy="104.998" r="5"/><circle cx="144.994" cy="104.998" r="5"/><circle cx="165.002" cy="104.998" r="5"/><circle cx="184.999" cy="104.998" r="5"/><circle cx="204.997" cy="104.998" r="5"/><circle cx="224.995" cy="104.998" r="5"/><circle cx="284.998" cy="104.998" r="5"/><circle cx="304.995" cy="104.998" r="5"/><circle cx="345.001" cy="104.998" r="5"/><circle cx="364.999" cy="104.998" r="5"/><circle cx="425.002" cy="104.998" r="5"/><circle cx="445" cy="104.998" r="5"/><circle cx="544.998" cy="104.998" r="5"/><circle cx="584.993" cy="104.998" r="5"/><circle cx="624.999" cy="104.998" r="5"/><circle cx="644.996" cy="104.998" r="5"/><circle cx="664.994" cy="104.998" r="5"/><circle cx="684.991" cy="104.998" r="5"/><circle cx="705" cy="104.998" r="5"/><circle cx="724.997" cy="104.998" r="5"/><circle cx="744.995" cy="104.998" r="5"/><circle cx="764.992" cy="104.998" r="5"/><circle cx="785" cy="104.998" r="5"/><circle cx="804.998" cy="104.998" r="5"/><circle cx="824.996" cy="104.998" r="5"/><circle cx="844.993" cy="104.998" r="5"/><circle cx="864.991" cy="104.998" r="5"/><circle cx="884.999" cy="104.998" r="5"/><circle cx="904.997" cy="104.998" r="5"/><circle cx="924.994" cy="104.998" r="5"/><circle cx="944.992" cy="104.998" r="5"/><circle cx="965" cy="104.998" r="5"/><circle cx="984.997" cy="104.998" r="5"/><circle cx="1005" cy="104.998" r="5"/><circle cx="1044.99" cy="104.998" r="5"/><circle cx="5" cy="125.007" r="5"/><circle cx="24.998" cy="125.007" r="5"/><circle cx="44.995" cy="125.007" r="5"/><circle cx="65.003" cy="125.007" r="5"/><circle cx="85.001" cy="125.007" r="5"/><circle cx="104.998" cy="125.007" r="5"/><circle cx="124.996" cy="125.007" r="5"/><circle cx="144.994" cy="125.007" r="5"/><circle cx="165.002" cy="125.007" r="5"/><circle cx="184.999" cy="125.007" r="5"/><circle cx="204.997" cy="125.007" r="5"/><circle cx="265" cy="125.007" r="5"/><circle cx="364.999" cy="125.007" r="5"/><circle cx="525" cy="125.007" r="5"/><circle cx="564.995" cy="125.007" r="5"/><circle cx="584.993" cy="125.007" r="5"/><circle cx="605.001" cy="125.007" r="5"/><circle cx="624.999" cy="125.007" r="5"/><circle cx="644.996" cy="125.007" r="5"/><circle cx="664.994" cy="125.007" r="5"/><circle cx="684.991" cy="125.007" r="5"/><circle cx="705" cy="125.007" r="5"/><circle cx="724.997" cy="125.007" r="5"/><circle cx="744.995" cy="125.007" r="5"/><circle cx="764.992" cy="125.007" r="5"/><circle cx="785" cy="125.007" r="5"/><circle cx="804.998" cy="125.007" r="5"/><circle cx="824.996" cy="125.007" r="5"/><circle cx="844.993" cy="125.007" r="5"/><circle cx="864.991" cy="125.007" r="5"/><circle cx="884.999" cy="125.007" r="5"/><circle cx="904.997" cy="125.007" r="5"/><circle cx="924.994" cy="125.007" r="5"/><circle cx="944.992" cy="125.007" r="5"/><circle cx="965" cy="125.007" r="5"/><circle cx="984.997" cy="125.007" r="5"/><circle cx="24.998" cy="145.004" r="5"/><circle cx="104.998" cy="145.004" r="5"/><circle cx="124.996" cy="145.004" r="5"/><circle cx="144.994" cy="145.004" r="5"/><circle cx="165.002" cy="145.004" r="5"/><circle cx="184.999" cy="145.004" r="5"/><circle cx="204.997" cy="145.004" r="5"/><circle cx="224.995" cy="145.004" r="5"/><circle cx="284.998" cy="145.004" r="5"/><circle cx="304.995" cy="145.004" r="5"/><circle cx="484.995" cy="145.004" r="5"/><circle cx="605.001" cy="145.004" r="5"/><circle cx="624.999" cy="145.004" r="5"/><circle cx="644.996" cy="145.004" r="5"/><circle cx="664.994" cy="145.004" r="5"/><circle cx="684.991" cy="145.004" r="5"/><circle cx="705" cy="145.004" r="5"/><circle cx="724.997" cy="145.004" r="5"/><circle cx="744.995" cy="145.004" r="5"/><circle cx="764.992" cy="145.004" r="5"/><circle cx="785" cy="145.004" r="5"/><circle cx="804.998" cy="145.004" r="5"/><circle cx="824.996" cy="145.004" r="5"/><circle cx="844.993" cy="145.004" r="5"/><circle cx="864.991" cy="145.004" r="5"/><circle cx="884.999" cy="145.004" r="5"/><circle cx="965" cy="145.004" r="5"/><circle cx="124.996" cy="165.002" r="5"/><circle cx="144.994" cy="165.002" r="5"/><circle cx="165.002" cy="165.002" r="5"/><circle cx="184.999" cy="165.002" r="5"/><circle cx="204.997" cy="165.002" r="5"/><circle cx="224.995" cy="165.002" r="5"/><circle cx="245.003" cy="165.002" r="5"/><circle cx="265" cy="165.002" r="5"/><circle cx="284.998" cy="165.002" r="5"/><circle cx="304.995" cy="165.002" r="5"/><circle cx="324.993" cy="165.002" r="5"/><circle cx="464.997" cy="165.002" r="5"/><circle cx="484.995" cy="165.002" r="5"/><circle cx="504.992" cy="165.002" r="5"/><circle cx="525" cy="165.002" r="5"/><circle cx="544.998" cy="165.002" r="5"/><circle cx="624.999" cy="165.002" r="5"/><circle cx="644.996" cy="165.002" r="5"/><circle cx="664.994" cy="165.002" r="5"/><circle cx="684.991" cy="165.002" r="5"/><circle cx="705" cy="165.002" r="5"/><circle cx="724.997" cy="165.002" r="5"/><circle cx="744.995" cy="165.002" r="5"/><circle cx="764.992" cy="165.002" r="5"/><circle cx="785" cy="165.002" r="5"/><circle cx="804.998" cy="165.002" r="5"/><circle cx="824.996" cy="165.002" r="5"/><circle cx="844.993" cy="165.002" r="5"/><circle cx="864.991" cy="165.002" r="5"/><circle cx="884.999" cy="165.002" r="5"/><circle cx="904.997" cy="165.002" r="5"/><circle cx="144.994" cy="184.999" r="5"/><circle cx="165.002" cy="184.999" r="5"/><circle cx="184.999" cy="184.999" r="5"/><circle cx="204.997" cy="184.999" r="5"/><circle cx="224.995" cy="184.999" r="5"/><circle cx="245.003" cy="184.999" r="5"/><circle cx="265" cy="184.999" r="5"/><circle cx="284.998" cy="184.999" r="5"/><circle cx="304.995" cy="184.999" r="5"/><circle cx="504.992" cy="184.999" r="5"/><circle cx="525" cy="184.999" r="5"/><circle cx="544.998" cy="184.999" r="5"/><circle cx="664.994" cy="184.999" r="5"/><circle cx="684.991" cy="184.999" r="5"/><circle cx="705" cy="184.999" r="5"/><circle cx="724.997" cy="184.999" r="5"/><circle cx="744.995" cy="184.999" r="5"/><circle cx="764.992" cy="184.999" r="5"/><circle cx="785" cy="184.999" r="5"/><circle cx="804.998" cy="184.999" r="5"/><circle cx="824.996" cy="184.999" r="5"/><circle cx="844.993" cy="184.999" r="5"/><circle cx="864.991" cy="184.999" r="5"/><circle cx="884.999" cy="184.999" r="5"/><circle cx="144.994" cy="204.997" r="5"/><circle cx="165.002" cy="204.997" r="5"/><circle cx="184.999" cy="204.997" r="5"/><circle cx="204.997" cy="204.997" r="5"/><circle cx="224.995" cy="204.997" r="5"/><circle cx="245.003" cy="204.997" r="5"/><circle cx="265" cy="204.997" r="5"/><circle cx="484.995" cy="204.997" r="5"/><circle cx="544.998" cy="204.997" r="5"/><circle cx="564.995" cy="204.997" r="5"/><circle cx="584.993" cy="204.997" r="5"/><circle cx="605.001" cy="204.997" r="5"/><circle cx="624.999" cy="204.997" r="5"/><circle cx="664.994" cy="204.997" r="5"/><circle cx="684.991" cy="204.997" r="5"/><circle cx="705" cy="204.997" r="5"/><circle cx="724.997" cy="204.997" r="5"/><circle cx="744.995" cy="204.997" r="5"/><circle cx="764.992" cy="204.997" r="5"/><circle cx="785" cy="204.997" r="5"/><circle cx="804.998" cy="204.997" r="5"/><circle cx="824.996" cy="204.997" r="5"/><circle cx="844.993" cy="204.997" r="5"/><circle cx="864.991" cy="204.997" r="5"/><circle cx="144.994" cy="225.005" r="5"/><circle cx="165.002" cy="225.005" r="5"/><circle cx="184.999" cy="225.005" r="5"/><circle cx="204.997" cy="225.005" r="5"/><circle cx="224.995" cy="225.005" r="5"/><circle cx="245.003" cy="225.005" r="5"/><circle cx="265" cy="225.005" r="5"/><circle cx="484.995" cy="225.005" r="5"/><circle cx="504.992" cy="225.005" r="5"/><circle cx="525" cy="225.005" r="5"/><circle cx="564.995" cy="225.005" r="5"/><circle cx="605.001" cy="225.005" r="5"/><circle cx="624.999" cy="225.005" r="5"/><circle cx="644.996" cy="225.005" r="5"/><circle cx="664.994" cy="225.005" r="5"/><circle cx="684.991" cy="225.005" r="5"/><circle cx="705" cy="225.005" r="5"/><circle cx="724.997" cy="225.005" r="5"/><circle cx="744.995" cy="225.005" r="5"/><circle cx="764.992" cy="225.005" r="5"/><circle cx="785" cy="225.005" r="5"/><circle cx="804.998" cy="225.005" r="5"/><circle cx="824.996" cy="225.005" r="5"/><circle cx="844.993" cy="225.005" r="5"/><circle cx="864.991" cy="225.005" r="5"/><circle cx="884.999" cy="225.005" r="5"/><circle cx="904.997" cy="225.005" r="5"/><circle cx="165.002" cy="245.003" r="5"/><circle cx="184.999" cy="245.003" r="5"/><circle cx="204.997" cy="245.003" r="5"/><circle cx="464.997" cy="245.003" r="5"/><circle cx="484.995" cy="245.003" r="5"/><circle cx="504.992" cy="245.003" r="5"/><circle cx="525" cy="245.003" r="5"/><circle cx="544.998" cy="245.003" r="5"/><circle cx="564.995" cy="245.003" r="5"/><circle cx="624.999" cy="245.003" r="5"/><circle cx="644.996" cy="245.003" r="5"/><circle cx="664.994" cy="245.003" r="5"/><circle cx="684.991" cy="245.003" r="5"/><circle cx="705" cy="245.003" r="5"/><circle cx="724.997" cy="245.003" r="5"/><circle cx="744.995" cy="245.003" r="5"/><circle cx="764.992" cy="245.003" r="5"/><circle cx="785" cy="245.003" r="5"/><circle cx="804.998" cy="245.003" r="5"/><circle cx="824.996" cy="245.003" r="5"/><circle cx="844.993" cy="245.003" r="5"/><circle cx="184.999" cy="265" r="5"/><circle cx="204.997" cy="265" r="5"/><circle cx="245.003" cy="265" r="5"/><circle cx="445" cy="265" r="5"/><circle cx="464.997" cy="265" r="5"/><circle cx="484.995" cy="265" r="5"/><circle cx="504.992" cy="265" r="5"/><circle cx="525" cy="265" r="5"/><circle cx="544.998" cy="265" r="5"/><circle cx="564.995" cy="265" r="5"/><circle cx="644.996" cy="265" r="5"/><circle cx="664.994" cy="265" r="5"/><circle cx="705" cy="265" r="5"/><circle cx="724.997" cy="265" r="5"/><circle cx="744.995" cy="265" r="5"/><circle cx="764.992" cy="265" r="5"/><circle cx="785" cy="265" r="5"/><circle cx="804.998" cy="265" r="5"/><circle cx="824.996" cy="265" r="5"/><circle cx="204.997" cy="284.998" r="5"/><circle cx="224.995" cy="284.998" r="5"/><circle cx="445" cy="284.998" r="5"/><circle cx="464.997" cy="284.998" r="5"/><circle cx="484.995" cy="284.998" r="5"/><circle cx="504.992" cy="284.998" r="5"/><circle cx="525" cy="284.998" r="5"/><circle cx="544.998" cy="284.998" r="5"/><circle cx="564.995" cy="284.998" r="5"/><circle cx="584.993" cy="284.998" r="5"/><circle cx="605.001" cy="284.998" r="5"/><circle cx="624.999" cy="284.998" r="5"/><circle cx="644.996" cy="284.998" r="5"/><circle cx="724.997" cy="284.998" r="5"/><circle cx="785" cy="284.998" r="5"/><circle cx="804.998" cy="284.998" r="5"/><circle cx="284.998" cy="305.006" r="5"/><circle cx="304.995" cy="305.006" r="5"/><circle cx="464.997" cy="305.006" r="5"/><circle cx="484.995" cy="305.006" r="5"/><circle cx="504.992" cy="305.006" r="5"/><circle cx="525" cy="305.006" r="5"/><circle cx="544.998" cy="305.006" r="5"/><circle cx="564.995" cy="305.006" r="5"/><circle cx="584.993" cy="305.006" r="5"/><circle cx="605.001" cy="305.006" r="5"/><circle cx="624.999" cy="305.006" r="5"/><circle cx="724.997" cy="305.006" r="5"/><circle cx="785" cy="305.006" r="5"/><circle cx="804.998" cy="305.006" r="5"/><circle cx="864.991" cy="305.006" r="5"/><circle cx="265" cy="325.003" r="5"/><circle cx="284.998" cy="325.003" r="5"/><circle cx="304.995" cy="325.003" r="5"/><circle cx="324.993" cy="325.003" r="5"/><circle cx="525" cy="325.003" r="5"/><circle cx="544.998" cy="325.003" r="5"/><circle cx="564.995" cy="325.003" r="5"/><circle cx="584.993" cy="325.003" r="5"/><circle cx="785" cy="325.003" r="5"/><circle cx="824.996" cy="325.003" r="5"/><circle cx="265" cy="345.001" r="5"/><circle cx="284.998" cy="345.001" r="5"/><circle cx="304.995" cy="345.001" r="5"/><circle cx="324.993" cy="345.001" r="5"/><circle cx="345.001" cy="345.001" r="5"/><circle cx="364.999" cy="345.001" r="5"/><circle cx="544.998" cy="345.001" r="5"/><circle cx="564.995" cy="345.001" r="5"/><circle cx="584.993" cy="345.001" r="5"/><circle cx="605.001" cy="345.001" r="5"/><circle cx="804.998" cy="345.001" r="5"/><circle cx="844.993" cy="345.001" r="5"/><circle cx="904.997" cy="345.001" r="5"/><circle cx="265" cy="364.999" r="5"/><circle cx="284.998" cy="364.999" r="5"/><circle cx="304.995" cy="364.999" r="5"/><circle cx="324.993" cy="364.999" r="5"/><circle cx="345.001" cy="364.999" r="5"/><circle cx="364.999" cy="364.999" r="5"/><circle cx="544.998" cy="364.999" r="5"/><circle cx="564.995" cy="364.999" r="5"/><circle cx="584.993" cy="364.999" r="5"/><circle cx="605.001" cy="364.999" r="5"/><circle cx="284.998" cy="384.996" r="5"/><circle cx="304.995" cy="384.996" r="5"/><circle cx="324.993" cy="384.996" r="5"/><circle cx="345.001" cy="384.996" r="5"/><circle cx="364.999" cy="384.996" r="5"/><circle cx="544.998" cy="384.996" r="5"/><circle cx="564.995" cy="384.996" r="5"/><circle cx="584.993" cy="384.996" r="5"/><circle cx="624.999" cy="384.996" r="5"/><circle cx="864.991" cy="384.996" r="5"/><circle cx="884.999" cy="384.996" r="5"/><circle cx="904.997" cy="384.996" r="5"/><circle cx="284.998" cy="405.004" r="5"/><circle cx="304.995" cy="405.004" r="5"/><circle cx="324.993" cy="405.004" r="5"/><circle cx="345.001" cy="405.004" r="5"/><circle cx="544.998" cy="405.004" r="5"/><circle cx="564.995" cy="405.004" r="5"/><circle cx="584.993" cy="405.004" r="5"/><circle cx="624.999" cy="405.004" r="5"/><circle cx="844.993" cy="405.004" r="5"/><circle cx="864.991" cy="405.004" r="5"/><circle cx="884.999" cy="405.004" r="5"/><circle cx="904.997" cy="405.004" r="5"/><circle cx="924.994" cy="405.004" r="5"/><circle cx="284.998" cy="425.002" r="5"/><circle cx="304.995" cy="425.002" r="5"/><circle cx="324.993" cy="425.002" r="5"/><circle cx="544.998" cy="425.002" r="5"/><circle cx="564.995" cy="425.002" r="5"/><circle cx="844.993" cy="425.002" r="5"/><circle cx="864.991" cy="425.002" r="5"/><circle cx="884.999" cy="425.002" r="5"/><circle cx="904.997" cy="425.002" r="5"/><circle cx="924.994" cy="425.002" r="5"/><circle cx="284.998" cy="445" r="5"/><circle cx="304.995" cy="445" r="5"/><circle cx="324.993" cy="445" r="5"/><circle cx="904.997" cy="445" r="5"/><circle cx="924.994" cy="445" r="5"/><circle cx="284.998" cy="464.997" r="5"/><circle cx="304.995" cy="464.997" r="5"/><circle cx="924.994" cy="464.997" r="5"/><circle cx="284.998" cy="484.995" r="5"/><circle cx="564.995" cy="25.008" r="5"/><circle cx="544.998" cy="25.008" r="5"/><circle cx="785" cy="25.008" r="5"/><circle cx="564.995" cy="145.004" r="5"/><circle cx="584.993" cy="145.004" r="5"/><circle cx="584.993" cy="184.999" r="5"/><circle cx="584.993" cy="165.002" r="5"/><circle cx="564.995" cy="165.002" r="5"/><circle cx="605.001" cy="184.999" r="5"/><circle cx="605.001" cy="165.002" r="5"/><circle cx="564.995" cy="184.999" r="5"/><circle cx="624.999" cy="184.999" r="5"/><circle cx="584.993" cy="245.003" r="5"/><circle cx="584.993" cy="265" r="5"/><circle cx="624.999" cy="265" r="5"/><circle cx="605.001" cy="245.003" r="5"/><circle cx="605.001" cy="325.003" r="5"/><circle cx="624.999" cy="325.003" r="5"/></g></svg>