<svg width="1500" height="620" fill="none" xmlns="http://www.w3.org/2000/svg"><path fill-rule="evenodd" clip-rule="evenodd" d="M1410 440c2.52 0 5.02.104 7.5.308l.12.01a89.486 89.486 0 0 1 29 7.444c30.82 13.745 52.49 44.31 53.35 80.032v.003a90.076 90.076 0 0 1-4.24 29.683 89.691 89.691 0 0 1-15.27 28.52 90.531 90.531 0 0 1-22.23 20c-13.94 8.865-30.49 14-48.23 14-17.84 0-34.46-5.188-48.44-14.137A90.304 90.304 0 0 1 1339.54 586a89.712 89.712 0 0 1-14.81-27.134 68.12 68.12 0 0 1-.46-1.386 90.076 90.076 0 0 1-4.24-29.686c.86-35.722 22.53-66.287 53.35-80.032l.42-.185a89.472 89.472 0 0 1 28.58-7.259c2.51-.211 5.05-.318 7.62-.318Zm-49.59 27.221c-13.08 10.347-22.85 24.694-27.46 41.194l27.46-41.194Zm-22.87 96.736a82.979 82.979 0 0 1-2.17-5.093l72.56-108.838.14-.003a82.142 82.142 0 0 1 3.74-.003l.26.006 72.56 108.838a79.824 79.824 0 0 1-9.17 17.136h-130.92a79.9 79.9 0 0 1-7-12.043ZM1384.95 606c7.88 2.596 16.3 4 25.05 4s17.17-1.404 25.05-4h-50.1Zm70.27-10h-90.44a80.41 80.41 0 0 1-11.91-10h114.26a80.41 80.41 0 0 1-11.91 10Zm4.37-128.779c13.08 10.347 22.85 24.694 27.46 41.194l-27.46-41.194Zm-19.63-11.423 50.04 75.056a80.527 80.527 0 0 1-1.68 15.514l-63.31-94.962a79.358 79.358 0 0 1 14.95 4.392Zm-59.92 0a79.358 79.358 0 0 1 14.95-4.392l-63.31 94.962a80.527 80.527 0 0 1-1.68-15.514l50.04-75.056ZM1410 501l30 45h-60l30-45Zm11.31 35h-22.62l11.31-16.972L1421.31 536Zm-78.68 30L1410 464.944 1477.37 566h-134.74Zm67.37-83.028L1361.31 556h97.38L1410 482.972ZM1130 440h-30v30h15c-8.28 0-15 6.716-15 15 0 8.284 6.72 15 15 15l-15 15 15 15h-15l30 30h-30v30h15l-15 15 15 15 15-15v15h30v-15l15 15 15-15v15h30l-30-30h45c-8.28 0-15 6.716-15 15 0 8.284 6.72 15 15 15 8.28 0 15-6.716 15-15l15 15 15-15-15-15c8.28 0 15-6.716 15-15 0-8.284-6.72-15-15-15h15v-60h-15l15-15-15-15c8.28 0 15-6.716 15-15 0-8.284-6.72-15-15-15-8.28 0-15 6.716-15 15v-15h-30l-30 30v-30h-30v15c0-8.284-6.72-15-15-15-8.28 0-15 6.716-15 15v-15Zm15 30c8.28 0 15-6.716 15-15v15h-15Zm-15 0h15c-8.28 0-15-6.716-15-15v15Zm0 15c0-8.284-6.72-15-15-15h15v15Zm0 15v-15c0 8.284-6.72 15-15 15l15 15-15 15h15v60h-15l15 15v-15h30v15l15-15 15 15v-45h30v30l30-30v30h-15c8.28 0 15 6.716 15 15l15-15c-8.28 0-15-6.716-15-15 0-8.284 6.72-15 15-15h-15l30-30h-30v-30h15l-15-15 15-15c-8.28 0-15-6.716-15-15v15l-30-30v30h-60v30h-30Zm30 30-30-30v30h15c-8.28 0-15 6.716-15 15 0 8.284 6.72 15 15 15h-15l30 30v-15c0 8.284 6.72 15 15 15 8.28 0 15-6.716 15-15 0-8.284-6.72-15-15-15l15-15c0 8.284 6.72 15 15 15 8.28 0 15-6.716 15-15v15h30v-30h-30v-30h30v-30h-30v15c0-8.284-6.72-15-15-15-8.28 0-15 6.716-15 15v-15l-30 30h30l-30 30Zm15 0 15 15c0-8.284 6.72-15 15-15 8.28 0 15 6.716 15 15v-15l-30-30h30v-15c0 8.284-6.72 15-15 15-8.28 0-15-6.716-15-15v45h-15Zm-15 15c0-8.284-6.72-15-15-15h30l-15 15Zm0 0 15 15c-8.28 0-15 6.716-15 15v-15h-15c8.28 0 15-6.716 15-15Zm-50-85h10v-10h-10v10Zm10 120v-10h-10v10h10Zm50-120h10v-10h-10v10Zm70 30h-10v-10h10v10Zm0 50h-10v10h10v-10Zm25.86-55-.86.858-.86-.858.86-.858.86.858ZM1115 515.858l.86-.858-.86-.858-.86.858.86.858ZM1175.86 545l-.86.858-.86-.858.86-.858.86.858Zm-.86 60.858.86-.858-.86-.858-.86.858.86.858Zm-59.14-.858-.86.858-.86-.858.86-.858.86.858Zm149.14.858.86-.858-.86-.858-.86.858.86.858ZM1200 570v10h10v-10h-10Zm60-60v10h10v-10h-10Zm-115-60a5.001 5.001 0 0 0 0 10 5.001 5.001 0 0 0 0-10Zm115 5a5.001 5.001 0 0 1 10 0 5.001 5.001 0 0 1-10 0Zm-120 35v-10h10v10h-10Zm65-10a5.001 5.001 0 0 0 0 10 5.001 5.001 0 0 0 0-10Zm55 95a5.001 5.001 0 0 1 10 0 5.001 5.001 0 0 1-10 0Zm-25 25a5.001 5.001 0 0 0 0 10 5.001 5.001 0 0 0 0-10Zm-35-55a5.001 5.001 0 0 1 10 0 5.001 5.001 0 0 1-10 0Zm-50 65h-10v-10h10v10Zm25-40a5.001 5.001 0 0 0 0 10 5.001 5.001 0 0 0 0-10Zm-35-25a5.001 5.001 0 0 1 10 0 5.001 5.001 0 0 1-10 0Zm-25-65a5.001 5.001 0 0 0 0 10 5.001 5.001 0 0 0 0-10ZM997.399 449.016c-8.622 1.178-18.016 5.622-27.387 12.627-16.423-12.271-32.847-16.609-45.012-9.585-8.739 5.045-13.614 14.998-14.63 28.133C901.675 481.464 895 488.952 895 498c0 2.098.359 4.112 1.019 5.985C885.79 511.304 880 520.239 880 530c0 14.043 11.962 26.096 30.793 34.183-2.412 20.352 2.045 36.738 14.207 43.759 12.073 6.971 28.425 2.834 45-9.575 16.419 12.264 32.84 16.597 45 9.575 12.16-7.022 16.62-23.408 14.21-43.76 19.04-8.154 30.79-20.246 30.79-34.182 0-14.047-11.97-26.102-30.81-34.189 1.22-10.261.71-19.544-1.7-27.126A17.968 17.968 0 0 0 1031 458c0-9.941-8.06-18-18-18-6.67 0-12.49 3.627-15.601 9.016Zm-95.565 63.103C894.035 517.693 890 523.904 890 530c0 8.98 8.542 17.574 22.503 23.999 1.651-7.691 4.165-15.777 7.501-24.012a156.075 156.075 0 0 1-4.949-14.103c-.675.077-1.36.116-2.055.116a17.923 17.923 0 0 1-11.166-3.881Zm22.5-.134c.479 1.668.998 3.348 1.555 5.037a187.711 187.711 0 0 1 10.82-18.735c-1.962.408-3.891.852-5.781 1.332a17.97 17.97 0 0 1-6.594 12.366Zm4.688-22.198a154.8 154.8 0 0 1 15.984-3.08c5.449-6.981 11.197-13.203 17.043-18.49-12.549-8.886-24.269-11.991-32.049-7.499-5.581 3.222-9.015 10.419-9.703 20.823a18.073 18.073 0 0 1 8.725 8.246Zm66.053-30.131c-5.348 1.409-11.158 4.337-17.114 8.547 5.833 5.274 11.578 11.491 17.039 18.495 8.8 1.228 17.05 3.094 24.54 5.509.58-6.4.36-12.214-.7-17.175-1.83.627-3.8.968-5.84.968-9.38 0-17.089-7.179-17.925-16.344ZM1013 466a8 8 0 0 0 8-8 8 8 0 0 0-8-8 8 8 0 0 0-8 8 8 8 0 0 0 8 8Zm-53.804 19.312c3.556-3.987 7.178-7.599 10.799-10.785 3.611 3.175 7.237 6.783 10.806 10.782a188.04 188.04 0 0 0-21.605.003ZM939.689 512.5a171.85 171.85 0 0 1 10.749-16.404A172.654 172.654 0 0 1 970 495c6.763 0 13.317.385 19.57 1.103a171.719 171.719 0 0 1 10.74 16.397 171.13 171.13 0 0 1 8.83 17.499 172.548 172.548 0 0 1-8.83 17.501 176.55 176.55 0 0 1-1.957 3.309A17.994 17.994 0 0 0 993 550c-8.892 0-16.278 6.448-17.738 14.922-1.746.052-3.5.078-5.262.078-6.763 0-13.317-.385-19.57-1.103a171.916 171.916 0 0 1-10.741-16.397 172.815 172.815 0 0 1-8.833-17.492 171.9 171.9 0 0 1 8.833-17.508Zm69.601 47.826a18.186 18.186 0 0 0-2.59-4 168.87 168.87 0 0 0 2.27-3.826c1.82-3.158 3.54-6.334 5.13-9.512 1.68 5.092 2.99 10.037 3.94 14.753-2.77.938-5.69 1.803-8.75 2.585ZM993 586c9.18 0 16.76-6.875 17.86-15.758 3-.743 5.89-1.565 8.67-2.459 1.42 15.308-1.75 27.008-9.53 31.499-7.78 4.491-19.496 1.387-32.044-7.495a134.094 134.094 0 0 0 7.55-7.417A17.92 17.92 0 0 0 993 586Zm-16.633-11.108c.428 1.033.95 2.018 1.555 2.943a121.222 121.222 0 0 1-7.917 7.638c-3.611-3.175-7.237-6.783-10.806-10.782a188.04 188.04 0 0 0 17.168.201Zm51.133-20.901c-1.66-7.689-4.17-15.774-7.51-24.006 3.32-8.202 5.83-16.286 7.49-23.991 13.97 6.425 22.52 15.022 22.52 24.006 0 8.702-8.3 17.421-22.5 23.991Zm-13.39-36.98c1.67-5.068 2.99-10.011 3.94-14.743-4.56-1.54-9.5-2.876-14.75-3.967a189.903 189.903 0 0 1 10.81 18.71ZM945 573.302c5.458 7 11.2 13.214 17.029 18.486-12.778 9.007-24.482 11.851-32.029 7.494-7.777-4.49-10.948-16.185-9.532-31.487 7.482 2.414 15.737 4.279 24.532 5.507Zm-8.303-11.603c-5.246-1.091-10.181-2.426-14.735-3.964.945-4.714 2.257-9.657 3.935-14.747a187.545 187.545 0 0 0 10.8 18.711ZM1001 568a8 8 0 1 1-16 0 8 8 0 0 1 16 0Zm-88-62a8 8 0 1 0 0-16 8 8 0 0 0 0 16ZM660 440h180v180H660V440Zm10 100v70h160V450H670v90Zm0 0 30-30h30v-30l30-30v60l-30 30h-60Zm160-20-30 30h-30v30l-2.929 2.929-10 10L750 600l-10 10V550l30-30h60Zm-90-35.858v31.716l10-10v-31.716l-10 10ZM726.126 520H730v10H694.142l10-10h21.984ZM750 550h10v25.858l-10 10V550Zm14.142-10h31.716l10-10h-31.716l-10 10ZM470 620h150V470l-30-30v150H440l30 30Zm120-10H474.142l-10-10H600V464.142l10 10V610h-20Zm-40-130h-70v70h10v-60h60v-10Zm-50 80v-60h60v-30h-90v90h30ZM370 450v30l-30 10v30l-60-20 30-10v-30l-30 10v-30l-30 10v30l-30-10v60l30 10-30 10v60l30-10v-30l30-10v-30l60 20-30 10v30l-30-10v30l30 10v-30l30-10v30l30-10v-60l30 10v-30l-30-10 30-10v-60l-30 10Zm0 60v30l-30 10v-30l30-10Zm-90 20-30 10v-60l30-10v60Zm100-42.792v-30l10-3.334v38.918l-40 13.334v-8.918l30-10Zm-140 75.584v30l-10 3.334v-38.918l40-13.334v8.918l-30 10Zm80 4.416v8.918l30-10v30l10-3.334v-38.918l-40 13.334Zm-60-101.082 10-3.334v-8.918l-10 3.334v8.918Zm40 16.666-10 3.334v-8.918l10-3.334v8.918Zm-10 111.082 10 3.334v8.918l-10-3.334v-8.918Zm100-66.666-10-3.334v8.918l10 3.334v-8.918Zm-100-13.334 40 13.334v8.918l-40-13.334v-8.918Zm-60 8.918 10 3.334v-38.918l-10-3.334v38.918ZM47.071 440 90 482.929V440h47.071L180 482.929V530h-42.929L180 572.929V620h-47.071L90 577.071V620H42.929L0 577.071V530h42.929L0 487.071V440h47.071ZM90 572.929V530h42.929L90 487.071V530H47.071L90 572.929ZM10 450v30h30v-30H10Zm37.071 70-30-30H42.93l30 30H47.07ZM80 512.929l-30-30v-25.858l30 30v25.858ZM100 480h30v-30h-30v30Zm40-22.929v25.858l30 30v-25.858l-30-30ZM132.929 490h-25.858l30 30h25.858l-30-30ZM40 570H10v-30h30v30Zm10 2.929v-25.858l30 30v25.858l-30-30ZM17.071 580H42.93l30 30H47.07l-30-30Zm90 0 30 30h25.858l-30-30h-25.858ZM100 570v-30h30v30h-30Zm40-22.929v25.858l30 30v-25.858l-30-30ZM1320 280c0 33.137 26.86 60 60 60h-60v60h180V220h-60v60c0-33.137-26.86-60-60-60s-60 26.863-60 60Zm120 60h-60c33.14 0 60-26.863 60-60v60Zm10 0h40V230h-40v110Zm40 10h-160v40h160v-40Zm-60-70c0 27.614-22.39 50-50 50s-50-22.386-50-50 22.39-50 50-50 50 22.386 50 50ZM1130 250h-30l30-30h30v30l-30 30v-30Zm30 60v-30h-30l-30 30h30v30l-30 30h30v30l30-30h30v30l30-30h30v30l30-30v-30h-30l30-30v-30h-30l30-30v-30h-30l-30 30v-30h-30l-30 30h30v30l-30 30Zm30 30-30 30v-30h-30l30-30h30v30Zm30-30h30v30l-30 30v-30h-30l30-30Zm0 0v-30h-30l30-30h30v30l-30 30Zm-70-64.142V230h-15.86l-10 10H1140v15.858l10-10Zm60 0V230h-15.86l-10 10H1200v15.858l10-10ZM1270 230v15.858l-10 10V240h-15.86l10-10H1270Zm-120 75.858V290h-15.86l-10 10H1140v15.858l10-10ZM1210 290v15.858l-10 10V300h-15.86l10-10H1210Zm60 15.858V290h-15.86l-10 10H1260v15.858l10-10ZM1150 350v15.858l-10 10V360h-15.86l10-10H1150Zm60 15.858V350h-15.86l-10 10H1200v15.858l10-10ZM1270 350v15.858l-10 10V360h-15.86l10-10H1270ZM1060 220h-62.071L970 247.929 942.071 220H880v62.071L907.929 310 880 337.929V400h62.071L970 372.071 997.929 400H1060v-62.071L1032.07 310l27.93-27.929V220Zm-122.071 10L970 262.071 1002.07 230H1050v47.929L1017.93 310l32.07 32.071V390h-47.93L970 357.929 937.929 390H890v-47.929L922.071 310 890 277.929V230h47.929Z" fill="#E6E6E6"/><path d="M719.487 374.773 835.92 400h-47.224l-68.183-14.773L686.42 400h-25.149l58.216-25.227Zm.187-19.861L840 370.955v10.088l-119.674-15.955L660 381.174v-10.35l59.674-15.912Zm.16-19.934L840 342.988v10.023l-119.834-7.989L660 353.044v-10.089l59.834-7.977Zm.124-19.979 120.042 2v10.002l-119.958-2L660 327.003v-10.006l59.958-1.998ZM660 292.997l60.042 2.002L840 293v10l-120.042 2.001L660 303.002v-10.005Zm0-26.04 60.166 8.021L840 266.989v10.022l-120.166 8.011L660 277.044v-10.087Zm0-28.132 60.326 16.087L840 238.956v10.088l-120.326 16.044L660 249.174v-10.349ZM686.421 220l34.092 14.773L788.694 220h47.226l-116.433 25.227L661.271 220h25.15Z" fill="#E6E6E6"/><path fill-rule="evenodd" clip-rule="evenodd" d="M530 400c-49.706 0-90-40.294-90-90s40.294-90 90-90 90 40.294 90 90-40.294 90-90 90Zm0-10c44.183 0 80-35.817 80-80s-35.817-80-80-80-80 35.817-80 80 35.817 80 80 80Zm0-125c8.284 0 15 6.716 15 15v60c0 8.284-6.716 15-15 15-8.284 0-15-6.716-15-15v-60c0-8.284 6.716-15 15-15Zm0 10a5 5 0 0 0-5 5v60a5 5 0 0 0 10 0v-60a5 5 0 0 0-5-5Z" fill="#E6E6E6"/><path d="M230 250v140h10V260h110v-10H230Zm20 20v130h-30V240h140v30H250Zm-20-40v10h130v110h10V230H230Zm120 20H220v-30h160v140h-30V250Zm30 110H270v10h120V230h-10v130Zm-10-140h30v160H260v-30h110V220Zm-120 50v120h140v-10H260V270h-10Zm20 100h130v30H240V260h30v110Z" fill="#E6E6E6"/><path fill-rule="evenodd" clip-rule="evenodd" d="M180 375v10H0v-10h180Zm-90-50v10H40l10 10h40v10H60l10 10H0v-10h60l-10-10H0v-10h40l-10-10h60Zm60 0-10 10h40v10h-50l-10 10h60v10h-70l10-10H90v-10h40l10-10H90v-10h60ZM20 315l10 10H0v-10h20Zm160 0v10h-30l10-10h20ZM40 295l-10 9.999L90 305v10H20l9.998-10H0v-10h40Zm140 0v10h-29.998L160 315H90v-10l60-.001L140 295h40Zm-90-10v10H40l10-10h40Zm40 0 10 10H90v-10h40Zm-70-10-10 10H0v-10h60Zm120 0v10h-50l-10-10h60Zm-120 0 10-10h40l10 10H60Zm20-20-10 10H0v-10h80Zm100 0v10h-70l-10-10h80Zm0-20v10H0v-10h180ZM1334.07 0 1380 45.929 1394.07 60h13.86L1380 32.071 1347.93 0h14.14L1380 17.929 1422.07 60h13.86L1380 4.071 1375.93 0h14.14L1440 49.929 1489.93 0H1500v4.071L1444.07 60h13.86L1500 17.929V32.07L1472.07 60h13.86L1500 45.929V60h-13.93L1500 73.929V88.07L1471.93 60h-13.86l41.93 41.929v14.142L1443.93 60h-7.86L1380 116.071 1323.93 60l-3.93-3.929V41.93L1338.07 60l41.93 41.929L1421.93 60h-13.86L1380 88.071 1351.93 60 1320 28.071V13.93L1366.07 60 1380 73.929 1393.93 60h-14L1320 .071V0h14.07ZM1320 170.071v-14.142L1355.93 120 1320 84.071V69.93L1370.07 120 1320 170.071Zm3.93 9.929h14.14l41.93-41.929L1421.93 180h14.14L1380 123.929 1323.93 180Zm28 0h14.14l13.93-13.929L1393.93 180h14.14L1380 151.929 1351.93 180ZM1320 127.929v14.142L1342.07 120 1320 97.929v14.142l7.93 7.929-7.93 7.929Zm84.07-7.929 35.93 35.929L1475.93 120 1440 84.071 1404.07 120Zm-14.14 0 50.07 50.071L1490.07 120 1440 69.929 1389.93 120Zm50.07 7.929-7.93-7.929 7.93-7.929 7.93 7.929-7.93 7.929ZM1417.93 120l22.07 22.071L1462.07 120 1440 97.929 1417.93 120Zm.14-120L1440 21.929 1461.93 0h14.14L1440 36.071 1403.93 0h14.14Zm13.86 0 8.07 8.071L1448.07 0h-16.14Zm12 180h14.14l41.93-41.929v-14.142L1443.93 180Zm28 0h14.14l13.93-13.929v-14.142L1471.93 180ZM1175 0h30c41.66 0 75 40.486 75 90 0 49.515-33.34 90-75 90h-30c-41.66 0-75-40.485-75-90 0-49.514 33.34-90 75-90Zm95 90c0 44.374-29.34 80-65 80s-65-35.626-65-80 29.34-80 65-80 65 35.626 65 80Zm-99.78-79.785C1136.75 13.23 1110 47.627 1110 90s26.75 76.769 60.22 79.785C1146.24 154.718 1130 124.558 1130 90s16.24-64.718 40.22-79.785ZM1150 90c0 38.416 24.3 70 55 70s55-31.584 55-70-24.3-70-55-70-55 31.584-55 70Zm100 0c0 33.381-20.48 60-45 60-.51 0-1.03-.012-1.54-.035C1219.64 137.542 1230 115.005 1230 90c0-24.989-10.35-47.533-26.54-59.965A33.63 33.63 0 0 1 1205 30c24.52 0 45 26.619 45 60Zm-59.99-56.556C1172.67 41.669 1160 63.742 1160 90s12.67 48.332 30.01 56.557c17.6-8.345 29.99-30.745 29.99-56.557 0-25.788-12.37-48.2-29.99-56.556ZM880 30h50v50h30V30h70v100h30V0H880v30Zm70 40V20h90v100h10V10H890v10h50v50h10Zm110 110v-30H960v-20h50V50h-30v50h-50v50h-20V50h-30v130h180ZM990 60h10v60h-50v40h100v10H890V60h10v100h40v-50h50V60ZM700 0h140l-40 40H700v100h-40V40l40-40Zm100 140V40h40v100l-40 40H660l40-40h100Zm10 0h20V50h-20v90ZM670 40h20v90h-20V40Zm34.142-30-20 20h111.716l20-20H704.142Zm0 140-20 20h111.716l20-20H704.142ZM620 0v180H440V0h180Zm-87.071 170H450V10h160v82.929L567.071 50H490v77.071L532.929 170Zm14.142 0h55.858l-40-40h-55.858l40 40ZM500 120h60V60h-60v60Zm70-52.929 40 40v55.858l-40-40V67.071ZM220 180c49.706 0 90-40.294 90-90v90c49.706 0 90-40.294 90-90S359.706 0 310 0v90c0-49.706-40.294-90-90-90v180Zm80-90c0 40.796-30.537 74.46-70 79.381V10.619c39.463 4.92 70 38.585 70 79.381Zm20-79.381c39.463 4.92 70 38.585 70 79.381s-30.537 74.46-70 79.381V10.619ZM150 30H0V0h180v180h-30V30Zm20 140V10H10v10h150v150h10Zm-70-90H0V50h130v130h-30V80Zm20-20H10v10h100v100h10V60ZM0 130h50v50h30v-80H0v30Zm10-20h60v60H60v-50H10v-10Zm20 40v30H0v-30h30Zm-20 10v10h10v-10H10Z" fill="#E6E6E6"/></svg>